<?xml version="1.0" encoding="UTF-8"?>
<svg id="_Слой_2" data-name="Слой 2" xmlns="http://www.w3.org/2000/svg" viewBox="0 0 50 50">
  <defs>
    <style>
      .cls-1 {
        fill: #fff;
      }
    </style>
  </defs>
  <g id="_Слой_2-2" data-name=" Слой 2">
    <g>
      <g id="_Слой_1-2" data-name=" Слой 1-2">
        <path d="m50,6.7l-25,43.3L0,6.7C7.35,2.44,15.89,0,25,0s17.65,2.44,25,6.7Z"/>
      </g>
      <path class="cls-1" d="m25.24,15.24c-.7,0-1.29-.17-1.78-.5-.49-.33-.87-.81-1.12-1.43-.26-.62-.38-1.38-.38-2.27,0-.96.14-1.77.43-2.44s.7-1.18,1.25-1.53c.54-.35,1.2-.53,1.96-.53.3,0,.59.04.89.11.3.08.58.18.85.32.27.14.51.31.71.51l-.5,1.15c-.3-.27-.61-.47-.95-.61s-.68-.2-1.03-.2-.65.06-.92.19c-.27.12-.49.31-.68.55-.18.24-.32.55-.41.91-.09.36-.14.79-.14,1.27v.9h-.14c.06-.41.2-.76.4-1.05.2-.29.47-.52.79-.67.32-.16.68-.23,1.07-.23.49,0,.92.12,1.3.35.38.23.67.55.89.96.22.41.32.88.32,1.4s-.12,1.03-.35,1.46-.56.76-.98,1.01c-.42.24-.91.37-1.46.37Zm-.08-1.22c.29,0,.54-.06.76-.19.22-.13.39-.31.51-.55s.18-.51.18-.81-.06-.58-.18-.82-.29-.41-.51-.55c-.22-.13-.47-.2-.76-.2s-.54.07-.76.2c-.22.13-.39.31-.51.55s-.19.5-.19.82.06.57.19.81.29.42.51.55c.22.13.47.19.76.19Z"/>
    </g>
  </g>
</svg>