<?xml version="1.0" encoding="UTF-8"?>
<svg id="_Слой_2" data-name="Слой 2" xmlns="http://www.w3.org/2000/svg" viewBox="0 0 50 50">
  <defs>
    <style>
      .cls-1 {
        fill: red;
      }
    </style>
  </defs>
  <g id="_Слой_2-2" data-name=" Слой 2">
    <g>
      <g id="_Слой_1-2" data-name=" Слой 1-2">
        <path class="cls-1" d="m50,6.7l-25,43.3L0,6.7C7.35,2.44,15.89,0,25,0s17.65,2.44,25,6.7Z"/>
      </g>
      <path d="m24.95,14.32c-.38,0-.76-.04-1.12-.11-.36-.08-.7-.19-1.01-.33-.31-.14-.58-.32-.82-.52l.5-1.18c.38.29.76.5,1.15.64.39.14.81.2,1.25.2.35,0,.65-.05.89-.14.24-.1.42-.24.55-.43s.19-.42.19-.7c0-.4-.13-.7-.4-.89-.27-.2-.66-.29-1.17-.29h-1.36v-1.27h1.21c.3,0,.56-.05.78-.15.22-.1.38-.24.5-.43.12-.18.18-.41.18-.67,0-.37-.12-.65-.37-.84-.24-.19-.6-.29-1.06-.29-.42,0-.8.07-1.16.21-.36.14-.7.36-1.03.65l-.5-1.15c.34-.32.76-.57,1.26-.74.5-.18,1.03-.26,1.57-.26.58,0,1.08.09,1.5.27s.73.44.95.77c.22.33.33.73.33,1.21,0,.5-.14.94-.42,1.3-.28.36-.66.61-1.15.73v-.14c.38.06.71.19.98.38s.48.44.62.73.22.64.22,1.02c0,.5-.12.93-.37,1.3-.25.37-.6.65-1.06.85-.46.2-1,.29-1.63.29Z"/>
    </g>
  </g>
</svg>