<?xml version="1.0" encoding="UTF-8"?>
<svg id="_Слой_2" data-name="Слой 2" xmlns="http://www.w3.org/2000/svg" viewBox="0 0 50 50">
  <defs>
    <style>
      .cls-1 {
        fill: #ff0;
      }
    </style>
  </defs>
  <g id="_Слой_2-2" data-name=" Слой 2">
    <g>
      <g id="_Слой_1-2" data-name=" Слой 1-2">
        <path class="cls-1" d="m50,6.7l-25,43.3L0,6.7C7.35,2.44,15.89,0,25,0s17.65,2.44,25,6.7Z"/>
      </g>
      <path d="m24.9,15.18c-.37,0-.73-.04-1.09-.12-.36-.08-.69-.19-1-.34-.31-.14-.57-.31-.8-.5l.5-1.18c.37.28.75.49,1.14.63.39.14.8.21,1.21.21.5,0,.9-.13,1.18-.39s.43-.61.43-1.05-.14-.81-.41-1.09c-.27-.28-.64-.41-1.12-.41-.34,0-.65.07-.92.2-.27.13-.52.33-.74.61h-1.03v-5.15h5.2v1.27h-3.7v2.69h-.4c.21-.28.48-.5.82-.65s.72-.23,1.13-.23c.54,0,1,.11,1.4.34.4.23.7.54.92.95s.33.87.33,1.41-.12,1.04-.37,1.46c-.25.42-.6.75-1.06.98s-1.01.35-1.64.35Z"/>
    </g>
  </g>
</svg>