<?xml version="1.0" encoding="UTF-8"?>
<svg id="_Слой_2" data-name="Слой 2" xmlns="http://www.w3.org/2000/svg" viewBox="0 0 50 50">
  <defs>
    <style>
      .cls-1, .cls-2 {
        fill: blue;
      }

      .cls-2 {
        isolation: isolate;
        opacity: .5;
      }
    </style>
  </defs>
  <g id="_Слой_2-2" data-name=" Слой 2">
    <g id="_Слой_1-2" data-name=" Слой 1-2">
      <polygon class="cls-2" points="22.9 7.54 22.3 6.41 24.82 4.9 25.91 4.9 25.91 12.09 27.7 12.09 27.7 13.36 22.47 13.36 22.47 12.09 24.38 12.09 24.38 6.64 22.9 7.54"/>
      <path class="cls-1" d="m25,0C15.89,0,7.35,2.44,0,6.7l25,43.3L50,6.7C42.65,2.44,34.11,0,25,0Zm-2.53,13.36v-1.27h1.91v-5.45l-1.48.9-.6-1.13,2.52-1.51h1.09v7.19h1.79v1.27s-5.23,0-5.23,0Z"/>
      <path d="m25.91,12.09v-7.19h-1.09l-2.52,1.51.6,1.13,1.48-.9v5.45h-1.91v1.27h5.23v-1.27h-1.79Z"/>
    </g>
  </g>
</svg>