<?xml version="1.0" encoding="UTF-8"?>
<svg id="_Слой_2" data-name="Слой 2" xmlns="http://www.w3.org/2000/svg" viewBox="0 0 50 50">
  <defs>
    <style>
      .cls-1 {
        fill: lime;
      }
    </style>
  </defs>
  <g id="_Слой_2-2" data-name=" Слой 2">
    <g>
      <g id="_Слой_1-2" data-name=" Слой 1-2">
        <path class="cls-1" d="m50,6.7l-25,43.3L0,6.7C7.35,2.44,15.89,0,25,0s17.65,2.44,25,6.7Z"/>
      </g>
      <path d="m22.37,13.42v-1.14l2.74-2.92c.25-.26.45-.51.59-.73.15-.22.26-.44.33-.65.07-.21.11-.42.11-.62,0-.4-.13-.7-.38-.91-.25-.21-.62-.31-1.1-.31-.38,0-.74.07-1.1.21-.36.14-.7.36-1.03.65l-.52-1.15c.34-.3.76-.55,1.26-.73.5-.18,1.03-.28,1.57-.28.61,0,1.12.09,1.54.28.42.18.73.45.95.8.22.35.32.78.32,1.28,0,.26-.03.51-.09.75s-.15.49-.28.73c-.12.24-.28.49-.47.74s-.41.51-.68.79l-2.26,2.35v-.41h4.09v1.27h-5.62Z"/>
    </g>
  </g>
</svg>